<svg xmlns="http://www.w3.org/2000/svg" width="61.77" height="61.77" viewBox="0 0 61.77 61.77">
  <g id="Group_2" data-name="Group 2" transform="translate(-609.032 -464.503)" opacity="0.57">
    <path id="Icon_awesome-arrow-alt-circle-right" data-name="Icon awesome-arrow-alt-circle-right" d="M31.448.563A30.885,30.885,0,1,1,.563,31.448,30.88,30.88,0,0,1,31.448.563Z" transform="translate(608.469 463.941)" fill="#d70f64"/>
    <path id="Icon_material-payment" data-name="Icon material-payment" d="M41.033,6H7.226a4.18,4.18,0,0,0-4.2,4.2L3,35.386a4.2,4.2,0,0,0,4.226,4.2H41.033a4.2,4.2,0,0,0,4.226-4.2V10.2A4.2,4.2,0,0,0,41.033,6Zm0,29.386H7.226V22.792H41.033Zm0-20.99H7.226V10.2H41.033Z" transform="translate(616 473)" fill="#fff"/>
  </g>
</svg>
