<svg xmlns="http://www.w3.org/2000/svg" width="61.77" height="61.77" viewBox="0 0 61.77 61.77">
  <path id="Icon_awesome-arrow-alt-circle-right" data-name="Icon awesome-arrow-alt-circle-right" d="M31.448.563A30.885,30.885,0,1,1,.563,31.448,30.88,30.88,0,0,1,31.448.563ZM17,36.927H31.448v8.83A1.5,1.5,0,0,0,34,46.815L48.235,32.506a1.481,1.481,0,0,0,0-2.1L34,16.08a1.494,1.494,0,0,0-2.553,1.059v8.83H17a1.5,1.5,0,0,0-1.494,1.494v7.97A1.5,1.5,0,0,0,17,36.927Z" transform="translate(-0.563 -0.563)" fill="#d71365"/>
</svg>
