<svg xmlns="http://www.w3.org/2000/svg" width="82.015" height="79.483" viewBox="0 0 82.015 79.483">
  <path id="Icon_awesome-house-damage" data-name="Icon awesome-house-damage" d="M41.007,17.846,9.891,47.769a6.516,6.516,0,0,1-.779.52V77a2.387,2.387,0,0,0,2.278,2.484H32.639l-5.3-11.3,14.824-9.935L33.6,39.737l21.08,21.234L39.853,70.906l5.684,8.577H70.624A2.387,2.387,0,0,0,72.9,77V48.3a6.566,6.566,0,0,1-.749-.5ZM81.259,36.68,72.9,28.634V7.452a2.387,2.387,0,0,0-2.278-2.484H61.511a2.387,2.387,0,0,0-2.278,2.484v8.024L44.816,1.6a5.331,5.331,0,0,0-7.611-.006L.756,36.68a2.644,2.644,0,0,0-.172,3.508l3.047,3.7a2.149,2.149,0,0,0,3.218.188L39.5,12.672a2.14,2.14,0,0,1,3.014,0l32.652,31.4a2.15,2.15,0,0,0,3.218-.188l3.047-3.7A2.642,2.642,0,0,0,81.259,36.68Z" transform="translate(0)" fill="#d70f64"/>
</svg>
