<svg xmlns="http://www.w3.org/2000/svg" width="61.77" height="61.77" viewBox="0 0 61.77 61.77">
  <g id="stekpanna" transform="translate(-64.9 -398.4)" opacity="0.57">
    <path id="Path_4" data-name="Path 4" d="M95.785,398.4a30.885,30.885,0,1,0,30.885,30.885A30.871,30.871,0,0,0,95.785,398.4Zm3.928,15.036.948-1.625c.135.135,3.387,1.9,3.387,5.012a8.5,8.5,0,0,1-1.626,4.335c-.677,1.219-1.49,2.3-1.49,3.522a4.1,4.1,0,0,0,1.9,3.522l-1.084,1.626a6.685,6.685,0,0,1-2.709-5.148,8.23,8.23,0,0,1,1.761-4.47,6.711,6.711,0,0,0,1.355-3.251C102.152,414.791,99.713,413.436,99.713,413.436Zm-8.669,0,.948-1.625c.135.135,3.387,1.9,3.387,5.012a8.5,8.5,0,0,1-1.626,4.335c-.677,1.219-1.49,2.3-1.49,3.522a4.1,4.1,0,0,0,1.9,3.522l-1.084,1.626a6.685,6.685,0,0,1-2.709-5.148,8.23,8.23,0,0,1,1.761-4.47,6.711,6.711,0,0,0,1.355-3.251C93.482,414.791,91.044,413.436,91.044,413.436Zm-9.347,0,.948-1.625c.135.135,3.387,1.9,3.387,5.012a8.5,8.5,0,0,1-1.626,4.335c-.677,1.219-1.49,2.3-1.49,3.522a4.1,4.1,0,0,0,1.9,3.522l-1.084,1.626a6.685,6.685,0,0,1-2.709-5.148,8.23,8.23,0,0,1,1.761-4.47,6.711,6.711,0,0,0,1.355-3.251C84.135,414.791,81.7,413.436,81.7,413.436Zm34.813,14.63-7.179,9.076a15.288,15.288,0,0,1-1.626,3.386c-2.167,3.522-7.179,3.928-11.921,3.928H91.45c-6.231,0-12.6,0-15.036-3.793a13.917,13.917,0,0,1-2.167-6.1c0-.271,0-.542.271-.677a1.035,1.035,0,0,1,.677-.271H109.06l5.825-6.773.135-.135,6.908-4.877c.271-.135.677-.135.813.135l.677.677c.135.135.271.406.135.542s-.135.406-.271.542Z" transform="translate(0 0)" fill="#d71365"/>
    <path id="Path_5" data-name="Path 5" d="M74.5,428.8c1.4,2.2,5.9,2.2,9.9,2.2H86c3.7,0,7.9.1,9.3-2.2a13.822,13.822,0,0,0,1.3-3.1H73.2A8.586,8.586,0,0,0,74.5,428.8Z" transform="translate(6.046 10.954)" fill="#d71365"/>
  </g>
</svg>
