<?xml version="1.0" encoding="UTF-8" standalone="no"?>
<svg
   xmlns:dc="http://purl.org/dc/elements/1.1/"
   xmlns:cc="http://creativecommons.org/ns#"
   xmlns:rdf="http://www.w3.org/1999/02/22-rdf-syntax-ns#"
   xmlns:svg="http://www.w3.org/2000/svg"
   xmlns="http://www.w3.org/2000/svg"
   xmlns:sodipodi="http://sodipodi.sourceforge.net/DTD/sodipodi-0.dtd"
   xmlns:inkscape="http://www.inkscape.org/namespaces/inkscape"
   width="210mm"
   height="297mm"
   viewBox="0 0 210 297"
   version="1.1"
   id="svg8"
   sodipodi:docname="PizzaPalatset.svg"
   inkscape:version="1.0beta2 (21648bd, 2020-03-01)">
  <defs
     id="defs2">
    <rect
       x="133.10022"
       y="114.9259"
       width="35.279578"
       height="17.10525"
       id="rect28" />
    <rect
       x="54.522984"
       y="110.64958"
       width="28.33057"
       height="17.10525"
       id="rect22" />
    <rect
       x="56.126601"
       y="112.78774"
       width="26.726953"
       height="12.294398"
       id="rect16" />
    <rect
       id="rect22-3"
       height="17.105249"
       width="28.33057"
       y="110.64958"
       x="54.522984" />
    <rect
       id="rect1040"
       height="17.105249"
       width="28.33057"
       y="110.64958"
       x="54.522984" />
    <rect
       id="rect22-6"
       height="17.105249"
       width="28.33057"
       y="110.64958"
       x="54.522984" />
    <rect
       id="rect1238"
       height="17.105249"
       width="28.33057"
       y="110.64958"
       x="54.522984" />
  </defs>
  <sodipodi:namedview
     id="base"
     pagecolor="#ffffff"
     bordercolor="#666666"
     borderopacity="1.0"
     inkscape:pageopacity="0.0"
     inkscape:pageshadow="2"
     inkscape:zoom="0.98994949"
     inkscape:cx="441.65413"
     inkscape:cy="274.93563"
     inkscape:document-units="mm"
     inkscape:current-layer="layer1"
     inkscape:document-rotation="0"
     showgrid="false"
     inkscape:window-width="1624"
     inkscape:window-height="974"
     inkscape:window-x="228"
     inkscape:window-y="0"
     inkscape:window-maximized="0" />
  <metadata
     id="metadata5">
    <rdf:RDF>
      <cc:Work
         rdf:about="">
        <dc:format>image/svg+xml</dc:format>
        <dc:type
           rdf:resource="http://purl.org/dc/dcmitype/StillImage" />
      </cc:Work>
    </rdf:RDF>
  </metadata>
  <g
     inkscape:label="Layer 1"
     inkscape:groupmode="layer"
     id="layer1">
    <text
       xml:space="preserve"
       id="text14"
       style="font-style:normal;font-weight:normal;font-size:10.5833px;line-height:1.25;font-family:sans-serif;white-space:pre;shape-inside:url(#rect16);fill:#000000;fill-opacity:1;stroke:none;" />
    <text
       xml:space="preserve"
       id="text26"
       style="fill:black;fill-opacity:1;line-height:1.25;stroke:none;font-family:sans-serif;font-style:normal;font-weight:normal;font-size:10.58333333px;shape-inside:url(#rect28);white-space:pre;" />
    <text
       xml:space="preserve"
       style="font-style:normal;font-weight:normal;font-size:10.5833px;line-height:1.25;font-family:sans-serif;fill:#000000;fill-opacity:1;stroke:none;stroke-width:0.264583"
       x="112.78236"
       y="122.94397"
       id="text34"><tspan
         sodipodi:role="line"
         id="tspan32"
         x="112.78236"
         y="122.94397"
         style="stroke-width:0.264583" /></text>
    <text
       xml:space="preserve"
       style="font-style:normal;font-weight:normal;font-size:10.5833px;line-height:1.25;font-family:sans-serif;fill:#000000;fill-opacity:1;stroke:none;stroke-width:0.264583"
       x="120.27129"
       y="120.27129"
       id="text38"><tspan
         sodipodi:role="line"
         id="tspan36"
         x="120.27129"
         y="120.27129"
         style="stroke-width:0.264583" /></text>
    <text
       xml:space="preserve"
       style="font-style:normal;font-weight:normal;font-size:10.5833px;line-height:1.25;font-family:sans-serif;fill:#000000;fill-opacity:1;stroke:none;stroke-width:0.264583"
       x="78.042702"
       y="147.53278"
       id="text46"><tspan
         sodipodi:role="line"
         id="tspan44"
         x="78.042702"
         y="147.53278"
         style="stroke-width:0.264583" /></text>
    <text
       xml:space="preserve"
       style="font-style:normal;font-weight:normal;font-size:10.5833px;line-height:1.25;font-family:sans-serif;fill:#000000;fill-opacity:1;stroke:none;stroke-width:0.264583"
       x="68.420998"
       y="171.05249"
       id="text50"><tspan
         sodipodi:role="line"
         id="tspan48"
         x="68.420998"
         y="171.05249"
         style="stroke-width:0.264583" /></text>
    <circle
       style="fill:#060000;fill-opacity:0.0230769;stroke-width:0.264583"
       id="path875"
       cx="23.252455"
       cy="65.481033"
       r="2.9399648" />
    <g
       id="g1194"
       stroke="none"
       fill="#000000"
       transform="matrix(0.00287754,-7.2992814e-5,-7.0278719e-5,-0.00298867,77.050639,95.708847)"
       style="fill:#d70f64;fill-opacity:1">
      <path
         id="path1188"
         d="m 6305,9281 c -44,-20 -114,-90 -140,-140 -25,-49 -55,-178 -55,-236 v -52 l -72,-7 C 5820,8826 5467,8745 5250,8667 4308,8324 3577,7627 3176,6688 3034,6355 2933,5931 2904,5553 l -7,-93 h 3508 3507 l -6,78 c -61,712 -291,1340 -689,1885 -574,784 -1451,1305 -2382,1413 -203,23 -185,17 -185,72 0,26 -7,76 -15,111 -49,208 -195,324 -330,262 z M 5545,8532 C 5163,8311 4850,8014 4604,7640 4305,7185 4106,6618 4047,6055 l -12,-120 -229,-3 -229,-2 7,56 c 21,183 91,454 171,669 280,752 918,1435 1745,1869 69,36 129,66 135,66 5,0 -35,-26 -90,-58 z"
         inkscape:connector-curvature="0"
         style="fill:#d70f64;fill-opacity:1" />
      <path
         id="path1190"
         d="m 9615,5410 c -1159,-63 -1987,-106 -5315,-280 -949,-49 -1803,-94 -1898,-100 -95,-5 -184,-10 -197,-10 h -25 v -140 -140 l 4198,2 4197,3 v 355 355 l -30,1 c -16,1 -435,-20 -930,-46 z"
         inkscape:connector-curvature="0"
         style="fill:#d70f64;fill-opacity:1" />
      <path
         id="path1192"
         d="m 2292,3888 3,-482 45,-8 c 269,-46 770,-58 975,-24 286,47 459,135 536,272 38,67 43,71 120,88 431,100 2509,180 5629,217 525,6 961,12 968,15 9,2 12,52 12,204 v 200 h -52 c -29,0 -118,-5 -198,-10 -80,-5 -527,-32 -995,-60 -467,-28 -1149,-68 -1515,-90 -366,-22 -897,-53 -1180,-70 -726,-43 -1431,-85 -2103,-125 -318,-19 -595,-35 -616,-35 -37,0 -41,3 -69,53 -58,103 -152,180 -305,252 -183,86 -175,85 -750,85 h -507 z m 909,328 c 8,-17 8,-29 0,-45 -12,-21 -15,-21 -376,-21 -359,0 -364,0 -370,21 -4,11 -4,31 -1,45 l 6,24 h 365 365 z m 0,-200 c 8,-17 8,-29 0,-45 -12,-21 -15,-21 -376,-21 -359,0 -364,0 -370,21 -4,11 -4,31 -1,45 l 6,24 h 365 365 z m 0,-200 c 8,-17 8,-29 0,-45 -12,-21 -15,-21 -376,-21 -359,0 -364,0 -370,21 -4,11 -4,31 -1,45 l 6,24 h 365 365 z m 0,-200 c 8,-17 8,-29 0,-45 -12,-21 -15,-21 -376,-21 -359,0 -364,0 -370,21 -4,11 -4,31 -1,45 l 6,24 h 365 365 z"
         inkscape:connector-curvature="0"
         style="fill:#d70f64;fill-opacity:1" />
    </g>
    <text
       transform="translate(2.792021,-38.046615)"
       style="font-style:normal;font-weight:normal;font-size:10.5833px;line-height:0;font-family:sans-serif;white-space:pre;shape-inside:url(#rect22-6);fill:#000000;fill-opacity:1;stroke:none;"
       id="text20-8"
       xml:space="preserve"><tspan
         sodipodi:role="line"
         x="54.523438"
         y="119.64206"><tspan
           style="font-style:normal;font-variant:normal;font-weight:bold;font-stretch:normal;line-height:1.25;font-family:Candara;-inkscape-font-specification:'Candara Bold';letter-spacing:0px;fill:#314455;fill-opacity:1">Pizza</tspan></tspan></text>
    <text
       id="text42-6"
       y="80.840149"
       x="109.45999"
       style="font-style:normal;font-weight:normal;font-size:10.5833px;line-height:1.25;font-family:sans-serif;fill:#000000;fill-opacity:1;stroke:none;stroke-width:0.264583"
       xml:space="preserve"><tspan
         style="font-style:normal;font-variant:normal;font-weight:bold;font-stretch:normal;font-family:Candara;-inkscape-font-specification:'Candara Bold';fill:#314455;fill-opacity:1;stroke-width:0.264583"
         y="80.840149"
         x="109.45999"
         id="tspan40-2"
         sodipodi:role="line">Palatset</tspan></text>
  </g>
</svg>
